<svg width="1280" height="75" viewBox="0 0 1280 75" fill="none" xmlns="http://www.w3.org/2000/svg">
<path d="M128.206 74.8494H-1.44531V-5.15039H1308.53V74.8494H1079.65H1005.76H128.206Z" fill="url(#paint0_linear_383_683)"/>
<path d="M1308.18 63.7334L1330.71 74.6416H764.475L786.999 63.7334H1308.18Z" fill="#083417"/>
<path d="M554.335 74.6416L576.859 63.7334L-24.6247 63.7334L-2.10107 74.6416L554.335 74.6416Z" fill="#037F2E"/>
<path d="M1031.35 74.6416L1053.87 63.7334H556.908L534.384 74.6416H1031.35Z" fill="#085523"/>
<path d="M-4.10303 -5.15045H222.175L477.626 -5.15047L354.675 74.6416H-16.2228L-4.10303 -5.15045Z" fill="url(#paint1_linear_383_683)"/>
<path d="M-28.5039 -5.15045H197.774L453.226 -5.15047L330.274 74.6416H-40.6237L-28.5039 -5.15045Z" fill="url(#paint2_linear_383_683)"/>
<defs>
<linearGradient id="paint0_linear_383_683" x1="1282.26" y1="-5.15039" x2="-1.43231" y2="3.13506" gradientUnits="userSpaceOnUse">
<stop stop-color="#00561E"/>
<stop offset="1" stop-color="#042710"/>
</linearGradient>
<linearGradient id="paint1_linear_383_683" x1="26.2205" y1="34.7456" x2="484.864" y2="34.7456" gradientUnits="userSpaceOnUse">
<stop stop-color="#0E2C19"/>
<stop offset="0.344095" stop-color="#0D4C23"/>
<stop offset="1" stop-color="#03501E"/>
</linearGradient>
<linearGradient id="paint2_linear_383_683" x1="1.8196" y1="34.7456" x2="460.463" y2="34.7456" gradientUnits="userSpaceOnUse">
<stop stop-color="#0E2C19"/>
<stop offset="0.5" stop-color="#0D4C23"/>
<stop offset="1" stop-color="#0C642B"/>
</linearGradient>
</defs>
</svg>
