<svg width="49" height="26" viewBox="0 0 49 26" fill="none" xmlns="http://www.w3.org/2000/svg">
<path d="M13.5236 0.0126953H48.4174L34.8958 24.7553H0.00195312L13.5236 0.0126953Z" fill="#006523"/>
<path d="M13.4116 0H15.6837L2.41427 24.755H1.00526e-05L13.4116 0Z" fill="#03BB44"/>
<path d="M17.5483 13.6251V17.0879L23.7185 20.6767L27.5592 18.4101L27.4332 11.2955L24.6 12.8695V16.7102L23.7185 17.0879L17.5483 13.6251Z" fill="#C2FFD7"/>
<path d="M28.3427 17.9396L31.3575 16.2359L31.4464 9.09848L27.5836 6.86989L21.2631 10.4769L24.1592 12.2399L27.5594 10.2825L28.3219 10.8641L28.3427 17.9396Z" fill="#C2FFD7"/>
<path d="M26.6147 6.44745L23.5852 4.65332L17.3921 8.20248L17.4347 12.6619L23.7187 16.2066L23.7722 12.9659L20.5001 10.9809L20.5001 9.99688L26.6147 6.44745Z" fill="#C2FFD7"/>
</svg>
