<svg width="49" height="25" viewBox="0 0 49 25" fill="none" xmlns="http://www.w3.org/2000/svg">
<path d="M13.5236 0.21875H48.4174L34.8958 24.9614H0.00195312L13.5236 0.21875Z" fill="#006523"/>
<path d="M13.4116 0.206055H15.6837L2.41427 24.9611H1.00526e-05L13.4116 0.206055Z" fill="#03BB44"/>
<path d="M26.1069 16.4745C26.3394 16.4745 26.5345 16.3957 26.692 16.2382C26.8496 16.0806 26.9281 15.8859 26.9275 15.6539C26.927 15.422 26.8482 15.2272 26.6912 15.0697C26.5342 14.9121 26.3394 14.8333 26.1069 14.8333C25.8744 14.8333 25.6797 14.9121 25.5227 15.0697C25.3657 15.2272 25.2869 15.422 25.2863 15.6539C25.2858 15.8859 25.3646 16.0809 25.5227 16.239C25.6808 16.3971 25.8755 16.4756 26.1069 16.4745ZM25.2863 13.1922H26.9275V8.26866H25.2863V13.1922ZM23.0297 19.7568L18.7217 15.4488V9.29439L23.0297 4.98633H29.1841L33.4922 9.29439V15.4488L29.1841 19.7568H23.0297Z" fill="#C2FFD7"/>
</svg>
