<svg width="47" height="25" viewBox="0 0 47 25" fill="none" xmlns="http://www.w3.org/2000/svg">
<path d="M12.2486 0H46.4223L36.011 24.7424H0L12.2486 0Z" fill="#006523"/>
<path d="M23.3938 20.4247L23.0717 17.8475C22.8972 17.7804 22.7329 17.6999 22.5788 17.6059C22.4247 17.5119 22.2736 17.4113 22.1254 17.3039L19.7294 18.3106L17.5146 14.4851L19.5885 12.9147C19.575 12.8207 19.5683 12.7302 19.5683 12.6432V12.0996C19.5683 12.0121 19.575 11.9214 19.5885 11.8274L17.5146 10.2569L19.7294 6.43147L22.1254 7.43817C22.273 7.33079 22.4274 7.23012 22.5884 7.13616C22.7495 7.0422 22.9106 6.96166 23.0717 6.89455L23.3938 4.31738H27.8233L28.1455 6.89455C28.32 6.96166 28.4845 7.0422 28.6392 7.13616C28.7938 7.23012 28.9447 7.33079 29.0918 7.43817L31.4877 6.43147L33.7025 10.2569L31.6287 11.8274C31.6421 11.9214 31.6488 12.0121 31.6488 12.0996V12.6424C31.6488 12.73 31.6354 12.8207 31.6085 12.9147L33.6824 14.4851L31.4676 18.3106L29.0918 17.3039C28.9441 17.4113 28.7898 17.5119 28.6287 17.6059C28.4676 17.6999 28.3065 17.7804 28.1455 17.8475L27.8233 20.4247H23.3938ZM25.6488 15.1898C26.4274 15.1898 27.0918 14.9146 27.6421 14.3643C28.1924 13.814 28.4676 13.1496 28.4676 12.371C28.4676 11.5925 28.1924 10.9281 27.6421 10.3778C27.0918 9.82742 26.4274 9.55226 25.6488 9.55226C24.8569 9.55226 24.189 9.82742 23.6451 10.3778C23.1012 10.9281 22.8295 11.5925 22.8301 12.371C22.8306 13.1496 23.1025 13.814 23.6459 14.3643C24.1892 14.9146 24.8569 15.1898 25.6488 15.1898Z" fill="#C2FFD7"/>
<path d="M12.2486 0H14.5208L2.41426 24.7424H0L12.2486 0Z" fill="#03BB44"/>
</svg>
