<svg width="49" height="25" viewBox="0 0 49 25" fill="none" xmlns="http://www.w3.org/2000/svg">
<path d="M13.5236 0.21875H48.4174L34.8958 24.9614H0.00195312L13.5236 0.21875Z" fill="#006523"/>
<path d="M13.4116 0.206055H15.6837L2.41427 24.9611H1.00526e-05L13.4116 0.206055Z" fill="#03BB44"/>
<path d="M24.1388 5.92578C24.7362 5.92578 25.3148 6.00445 25.8655 6.15178L24.4482 7.56845C24.3406 7.6764 24.2458 7.79629 24.1655 7.92578H24.1388C23.2159 7.92578 22.3136 8.19948 21.5462 8.71226C20.7787 9.22504 20.1806 9.95387 19.8274 10.8066C19.4742 11.6593 19.3818 12.5976 19.5618 13.5029C19.7419 14.4081 20.1864 15.2396 20.839 15.8923C21.4916 16.5449 22.3232 16.9894 23.2284 17.1694C24.1337 17.3495 25.072 17.2571 25.9247 16.9039C26.7774 16.5507 27.5062 15.9525 28.019 15.1851C28.5318 14.4177 28.8055 13.5154 28.8055 12.5924V12.5658C28.9344 12.4858 29.0533 12.3913 29.1622 12.2824L30.5795 10.8658C30.7268 11.4164 30.8055 11.9951 30.8055 12.5924C30.8055 16.2744 27.8208 19.2591 24.1388 19.2591C20.4568 19.2591 17.4722 16.2744 17.4722 12.5924C17.4722 8.91045 20.4568 5.92578 24.1388 5.92578ZM23.8628 9.27045C23.8628 9.83778 23.8348 10.4131 23.8655 10.9798L23.5055 11.3398C23.3817 11.4636 23.2834 11.6106 23.2164 11.7724C23.1494 11.9342 23.1149 12.1076 23.1149 12.2828C23.1149 12.4579 23.1494 12.6313 23.2164 12.7931C23.2834 12.9549 23.3817 13.1019 23.5055 13.2258C23.6293 13.3496 23.7764 13.4479 23.9382 13.5149C24.1 13.5819 24.2734 13.6164 24.4485 13.6164C24.6236 13.6164 24.797 13.5819 24.9588 13.5149C25.1206 13.4479 25.2677 13.3496 25.3915 13.2258L25.7515 12.8658C26.3182 12.8964 26.8928 12.8684 27.4608 12.8684C27.4082 13.502 27.1754 14.1073 26.7901 14.6129C26.4047 15.1185 25.8827 15.5034 25.2858 15.7222C24.6889 15.9409 24.0418 15.9844 23.421 15.8474C22.8002 15.7105 22.2315 15.3989 21.7819 14.9493C21.3324 14.4998 21.0208 13.9311 20.8839 13.3103C20.7469 12.6894 20.7904 12.0424 21.0091 11.4455C21.2279 10.8485 21.6127 10.3266 22.1184 9.94123C22.624 9.55586 23.2293 9.32311 23.8628 9.27045ZM28.4748 6.01045C28.5965 6.0609 28.7005 6.14627 28.7737 6.25579C28.8469 6.3653 28.8861 6.49405 28.8862 6.62578V7.84578H30.1055C30.2373 7.84581 30.3662 7.88492 30.4758 7.95818C30.5854 8.03144 30.6708 8.13554 30.7213 8.25734C30.7717 8.37914 30.7849 8.51317 30.7592 8.64247C30.7335 8.77177 30.67 8.89055 30.5768 8.98378L28.2188 11.3391C28.0938 11.4641 27.9243 11.5344 27.7475 11.5344H26.1388L24.9202 12.7538C24.7951 12.8789 24.6254 12.9492 24.4485 12.9492C24.2716 12.9492 24.1019 12.8789 23.9768 12.7538C23.8517 12.6287 23.7815 12.459 23.7815 12.2821C23.7815 12.1052 23.8517 11.9355 23.9768 11.8104L25.1962 10.5924V8.98311C25.1961 8.89546 25.2133 8.80866 25.2468 8.72766C25.2804 8.64667 25.3295 8.57309 25.3915 8.51111L27.7482 6.15445C27.8414 6.06116 27.9602 5.99762 28.0896 5.97187C28.2189 5.94612 28.353 5.95931 28.4748 6.00978" fill="#C2FFD7"/>
</svg>
