<svg width="40" height="40" viewBox="0 0 40 40" fill="none" xmlns="http://www.w3.org/2000/svg">
<g clip-path="url(#clip0_17_3429)">
<path d="M33.8992 2.78304C33.7442 2.62682 33.5599 2.50283 33.3568 2.41822C33.1537 2.3336 32.9359 2.29004 32.7158 2.29004C32.4958 2.29004 32.278 2.3336 32.0749 2.41822C31.8718 2.50283 31.6874 2.62682 31.5325 2.78304C31.2221 3.09531 31.0479 3.51773 31.0479 3.95804C31.0479 4.39835 31.2221 4.82077 31.5325 5.13304C33.1597 6.75697 34.4507 8.68587 35.3315 10.8093C36.2123 12.9328 36.6657 15.2091 36.6657 17.508C36.6657 19.8069 36.2123 22.0833 35.3315 24.2067C34.4507 26.3302 33.1597 28.2591 31.5325 29.883C31.2221 30.1953 31.0479 30.6177 31.0479 31.058C31.0479 31.4983 31.2221 31.9208 31.5325 32.233C31.6869 32.3905 31.8709 32.5158 32.0741 32.6016C32.2772 32.6875 32.4953 32.7321 32.7158 32.733C32.9363 32.7321 33.1545 32.6875 33.3576 32.6016C33.5607 32.5158 33.7448 32.3905 33.8992 32.233C35.8338 30.2998 37.3685 28.0043 38.4156 25.4778C39.4627 22.9512 40.0016 20.243 40.0016 17.508C40.0016 14.7731 39.4627 12.0649 38.4156 9.53832C37.3685 7.01173 35.8338 4.71624 33.8992 2.78304Z" fill="#1DF067"/>
<path d="M29.1858 7.48304C29.0304 7.32873 28.8461 7.20655 28.6435 7.12346C28.4409 7.04037 28.2239 6.998 28.0049 6.99878C27.7859 6.99955 27.5692 7.04345 27.3672 7.12797C27.1652 7.21249 26.9818 7.33597 26.8275 7.49137C26.6732 7.64677 26.551 7.83104 26.4679 8.03365C26.3848 8.23627 26.3424 8.45327 26.3432 8.67226C26.344 8.89125 26.3879 9.10795 26.4724 9.30997C26.5569 9.512 26.6804 9.6954 26.8358 9.8497C27.8432 10.8545 28.6424 12.0481 29.1877 13.3623C29.733 14.6764 30.0137 16.0852 30.0137 17.508C30.0137 18.9308 29.733 20.3397 29.1877 21.6538C28.6424 22.9679 27.8432 24.1616 26.8358 25.1664C26.6007 25.3995 26.4404 25.6973 26.3753 26.0219C26.3102 26.3465 26.3432 26.6831 26.4702 26.9888C26.5971 27.2946 26.8122 27.5556 27.0881 27.7386C27.364 27.9216 27.6881 28.0183 28.0191 28.0164C28.2385 28.0176 28.4559 27.9756 28.659 27.8927C28.862 27.8097 29.0467 27.6875 29.2025 27.533C31.8446 24.8756 33.3276 21.2804 33.3276 17.533C33.3276 13.7856 31.8446 10.1905 29.2025 7.53304L29.1858 7.48304ZM3.33579 17.5164C3.32644 15.2148 3.77554 12.9345 4.65689 10.8084C5.53824 8.68226 6.83419 6.75296 8.46912 5.13304C8.77954 4.82077 8.95378 4.39835 8.95378 3.95804C8.95378 3.51773 8.77954 3.09531 8.46912 2.78304C8.31419 2.62682 8.12985 2.50283 7.92675 2.41822C7.72365 2.3336 7.50581 2.29004 7.28579 2.29004C7.06577 2.29004 6.84793 2.3336 6.64483 2.41822C6.44173 2.50283 6.2574 2.62682 6.10246 2.78304C4.16783 4.71624 2.63312 7.01173 1.58603 9.53832C0.538945 12.0649 0 14.7731 0 17.508C0 20.243 0.538945 22.9512 1.58603 25.4778C2.63312 28.0043 4.16783 30.2998 6.10246 32.233C6.25681 32.3905 6.44089 32.5158 6.64401 32.6016C6.84714 32.6875 7.06528 32.7321 7.28579 32.733C7.5063 32.7321 7.72444 32.6875 7.92757 32.6016C8.13069 32.5158 8.31477 32.3905 8.46912 32.233C8.77954 31.9208 8.95378 31.4983 8.95378 31.058C8.95378 30.6177 8.77954 30.1953 8.46912 29.883C6.83619 28.2651 5.5414 26.3385 4.66012 24.2154C3.77883 22.0923 3.32865 19.8151 3.33579 17.5164Z" fill="#1DF067"/>
<path d="M13.1675 7.48172C12.8553 7.17131 12.4328 6.99707 11.9925 6.99707C11.5522 6.99707 11.1298 7.17131 10.8175 7.48172C8.17542 10.1392 6.69238 13.7343 6.69238 17.4817C6.69238 21.2291 8.17542 24.8242 10.8175 27.4817C11.1368 27.7248 11.533 27.8446 11.9334 27.819C12.3338 27.7935 12.7116 27.6243 12.9973 27.3426C13.2831 27.061 13.4576 26.6856 13.4889 26.2856C13.5201 25.8856 13.406 25.4877 13.1675 25.1651C11.1412 23.1314 10.0034 20.3776 10.0034 17.5067C10.0034 14.6359 11.1412 11.882 13.1675 9.84839C13.3238 9.69345 13.4477 9.50912 13.5324 9.30602C13.617 9.10292 13.6605 8.88508 13.6605 8.66506C13.6605 8.44504 13.617 8.2272 13.5324 8.0241C13.4477 7.821 13.3238 7.63666 13.1675 7.48172ZM20.0009 12.2817C18.8283 12.2908 17.6962 12.7117 16.8025 13.4709C15.9089 14.2301 15.3104 15.2792 15.1119 16.4349C14.9133 17.5905 15.1272 18.7792 15.7163 19.7932C16.3053 20.8071 17.2319 21.5818 18.3342 21.9817V36.0317C18.3342 36.4738 18.5098 36.8977 18.8224 37.2102C19.1349 37.5228 19.5588 37.6984 20.0009 37.6984C20.4429 37.6984 20.8668 37.5228 21.1794 37.2102C21.4919 36.8977 21.6675 36.4738 21.6675 36.0317V21.9817C22.7698 21.5818 23.6965 20.8071 24.2855 19.7932C24.8745 18.7792 25.0884 17.5905 24.8899 16.4349C24.6913 15.2792 24.0929 14.2301 23.1992 13.4709C22.3055 12.7117 21.1734 12.2908 20.0009 12.2817Z" fill="#1DF067"/>
</g>
<defs>
<clipPath id="clip0_17_3429">
<rect width="40" height="40" fill="white"/>
</clipPath>
</defs>
</svg>
