<svg width="339" height="57" viewBox="0 0 339 57" fill="none" xmlns="http://www.w3.org/2000/svg">
<path d="M335.849 1.0127L334.503 2.66406L312.778 29.3252L334.479 53.9863L335.958 55.667H26.6147L26.3159 55.3555L2.0249 30.0527L1.37744 29.3779L1.99854 28.6797L26.2896 1.35156L26.5913 1.0127H335.849Z" stroke="#00F25D" stroke-width="2.02424"/>
<path d="M334.771 1.52441L334.107 2.33984L312.107 29.3389L334.094 54.3242L334.825 55.1543H26.8335L26.686 55.001L2.39502 29.6982L2.07471 29.3643L2.38135 29.0195L26.6724 1.69238L26.8218 1.52441H334.771Z" fill="#066611" fill-opacity="0.5" stroke="#2BFF75"/>
<path d="M7.30981 29.1007L31.3776 54.1714H335.234L313.172 29.1007L335.234 2.02441H31.3776L7.30981 29.1007Z" stroke="#00E558" stroke-width="2.04314"/>
<path d="M336.756 12.833V40.8044L320.562 29.0269L336.756 12.833Z" fill="#00F25D"/>
</svg>
