<svg width="339" height="57" viewBox="0 0 339 57" fill="none" xmlns="http://www.w3.org/2000/svg">
<path d="M2.34766 1.0127L3.69336 2.66406L25.4189 29.3252L3.71777 53.9863L2.23926 55.667H311.582L311.881 55.3555L336.172 30.0527L336.819 29.3779L336.198 28.6797L311.907 1.35156L311.605 1.0127H2.34766Z" stroke="#00F25D" stroke-width="2.02424"/>
<path d="M3.42578 1.52441L4.08984 2.33984L26.0898 29.3389L4.10254 54.3242L3.37207 55.1543H311.363L311.511 55.001L335.802 29.6982L336.122 29.3643L335.815 29.0195L311.524 1.69238L311.375 1.52441H3.42578Z" fill="#066611" fill-opacity="0.5" stroke="#2BFF75"/>
<path d="M331.441 29.1007L307.374 54.1714H3.5173L25.5795 29.1007L3.5173 2.02441H307.374L331.441 29.1007Z" stroke="#00E558" stroke-width="2.04314"/>
<path d="M1.44083 12.833V40.8044L17.6348 29.0269L1.44083 12.833Z" fill="#00F25D"/>
</svg>
