<svg width="14" height="14" viewBox="0 0 14 14" fill="none" xmlns="http://www.w3.org/2000/svg">
<path d="M4.8125 7L6.46969 8.65719C6.52095 8.70845 6.60405 8.70845 6.65531 8.65719L10.0625 5.25" stroke="white" stroke-width="1.05"/>
<path d="M13.5625 7C13.5625 8.29794 13.1776 9.56673 12.4565 10.6459C11.7354 11.7251 10.7105 12.5663 9.51136 13.063C8.31222 13.5597 6.99272 13.6896 5.71972 13.4364C4.44672 13.1832 3.27739 12.5582 2.35961 11.6404C1.44183 10.7226 0.816812 9.55328 0.563597 8.28028C0.310381 7.00728 0.440341 5.68778 0.937041 4.48864C1.43374 3.2895 2.27487 2.26458 3.35407 1.54348C4.43327 0.822384 5.70206 0.4375 7 0.4375" stroke="white" stroke-width="0.875" stroke-linecap="round"/>
</svg>
