<svg width="16" height="16" viewBox="0 0 16 16" fill="none" xmlns="http://www.w3.org/2000/svg">
<path d="M4.66667 13.3337H11.3333M6 10.667V13.3337M10 10.667V13.3337M2 3.33366C2 3.15685 2.07024 2.98728 2.19526 2.86225C2.32029 2.73723 2.48986 2.66699 2.66667 2.66699H13.3333C13.5101 2.66699 13.6797 2.73723 13.8047 2.86225C13.9298 2.98728 14 3.15685 14 3.33366V10.0003C14 10.1771 13.9298 10.3467 13.8047 10.4717C13.6797 10.5968 13.5101 10.667 13.3333 10.667H2.66667C2.48986 10.667 2.32029 10.5968 2.19526 10.4717C2.07024 10.3467 2 10.1771 2 10.0003V3.33366Z" stroke="#2BFF75" stroke-width="2" stroke-linecap="round" stroke-linejoin="round"/>
<path d="M4.66663 6.66699H5.99996L7.33329 8.66699L8.66663 4.66699L9.33329 6.66699H11.3333" stroke="#2BFF75" stroke-width="2" stroke-linecap="round" stroke-linejoin="round"/>
</svg>
