<svg width="24" height="24" viewBox="0 0 24 24" fill="none" xmlns="http://www.w3.org/2000/svg">
<circle cx="12" cy="12" r="11.4368" stroke="#CA7A02" stroke-width="1.12638"/>
<circle cx="12.0009" cy="12.0002" r="11.1724" fill="#9A5C00" fill-opacity="0.1"/>
<mask id="mask0_17_5293" style="mask-type:alpha" maskUnits="userSpaceOnUse" x="0" y="0" width="24" height="24">
<circle cx="12.0002" cy="12.0002" r="11.1724" fill="#432605"/>
</mask>
<g mask="url(#mask0_17_5293)">
<g filter="url(#filter0_f_17_5293)">
<circle cx="12.0019" cy="23.1727" r="9.10345" fill="url(#paint0_linear_17_5293)"/>
</g>
<path d="M12.0855 12.8787C12.3252 12.8787 12.5189 12.685 12.5189 12.4545V8.02372L12.482 7.34135L12.7678 7.67793L13.4133 8.3649C13.4871 8.44789 13.5931 8.48939 13.6992 8.48939C13.9113 8.48939 14.0865 8.33724 14.0865 8.12054C14.0865 8.00528 14.0404 7.92229 13.962 7.84391L12.4174 6.35469C12.3022 6.24404 12.2007 6.20715 12.0855 6.20715C11.9748 6.20715 11.8688 6.24404 11.7581 6.35469L10.209 7.84391C10.1306 7.92229 10.0891 8.00528 10.0891 8.12054C10.0891 8.33724 10.2597 8.48939 10.4718 8.48939C10.5778 8.48939 10.6885 8.44789 10.7622 8.3649L11.4031 7.67793L11.689 7.33674L11.6567 8.02372V12.4545C11.6567 12.685 11.8503 12.8787 12.0855 12.8787ZM8.13883 17.0743H16.0275C17.028 17.0743 17.549 16.5579 17.549 15.5712V13.0769C17.549 12.6112 17.4983 12.3899 17.277 12.0902L15.8108 10.1492C15.2529 9.39767 14.9948 9.24552 14.1649 9.24552H13.3718V10.0109H14.1971C14.506 10.0109 14.7135 10.0754 14.944 10.3797L16.4563 12.4222C16.6131 12.6297 16.5577 12.7173 16.3226 12.7173H13.5701C13.3027 12.7173 13.1828 12.9063 13.1828 13.1046V13.123C13.1828 13.6625 12.7632 14.2388 12.0855 14.2388C11.4077 14.2388 10.9882 13.6625 10.9882 13.123V13.1046C10.9882 12.9063 10.8683 12.7173 10.6009 12.7173H7.84836C7.60861 12.7173 7.56712 12.6159 7.71004 12.4222L9.2177 10.3889C9.45284 10.08 9.66032 10.0109 9.97384 10.0109H10.7991V9.24552H10.0061C9.1716 9.24552 8.92263 9.39767 8.35091 10.1584L6.88936 12.0902C6.67266 12.3899 6.62195 12.6112 6.62195 13.0769V15.5712C6.62195 16.5579 7.14294 17.0743 8.13883 17.0743Z" fill="#FF9900"/>
</g>
<defs>
<filter id="filter0_f_17_5293" x="-2.35799" y="8.81278" width="28.7198" height="28.7198" filterUnits="userSpaceOnUse" color-interpolation-filters="sRGB">
<feFlood flood-opacity="0" result="BackgroundImageFix"/>
<feBlend mode="normal" in="SourceGraphic" in2="BackgroundImageFix" result="shape"/>
<feGaussianBlur stdDeviation="2.62822" result="effect1_foregroundBlur_17_5293"/>
</filter>
<linearGradient id="paint0_linear_17_5293" x1="12.0019" y1="14.0692" x2="12.0019" y2="29.7934" gradientUnits="userSpaceOnUse">
<stop stop-color="#6A4000" stop-opacity="0.3"/>
<stop offset="1" stop-color="#5E3800"/>
</linearGradient>
</defs>
</svg>
