<svg width="24" height="24" viewBox="0 0 24 24" fill="none" xmlns="http://www.w3.org/2000/svg">
<circle cx="12" cy="12" r="11.4368" stroke="#00FF62" stroke-width="1.12638"/>
<mask id="mask0_17_5302" style="mask-type:alpha" maskUnits="userSpaceOnUse" x="0" y="0" width="24" height="24">
<circle cx="12.0007" cy="12" r="11.1724" fill="#050F43"/>
</mask>
<g mask="url(#mask0_17_5302)">
<path d="M12.2091 12.9186C12.327 12.9186 12.4307 12.8809 12.5485 12.7678L14.1278 11.2451C14.2079 11.165 14.255 11.0801 14.255 10.9623C14.255 10.7407 14.0759 10.5852 13.8591 10.5852C13.7506 10.5852 13.6422 10.6276 13.5668 10.7124L12.9068 11.4148L12.6145 11.7637L12.6523 11.0613V7.0543C12.6523 6.8186 12.4543 6.62061 12.2091 6.62061C11.9687 6.62061 11.7707 6.8186 11.7707 7.0543V11.0613L11.8037 11.7637L11.5114 11.4148L10.8562 10.7124C10.7808 10.6276 10.6676 10.5852 10.5592 10.5852C10.3423 10.5852 10.1679 10.7407 10.1679 10.9623C10.1679 11.0801 10.2104 11.165 10.2905 11.2451L11.8744 12.7678C11.9876 12.8809 12.096 12.9186 12.2091 12.9186ZM8.17386 17.5667H16.2397C17.2626 17.5667 17.7953 17.0388 17.7953 16.0299V13.3288C17.7953 12.8526 17.7341 12.6169 17.5172 12.32L15.9521 10.2033C15.4053 9.45849 15.0234 9.10022 14.1608 9.10022H13.5244V9.87333H14.2079C14.5379 9.87333 14.8679 10.1468 15.0753 10.4249L16.6781 12.6594C16.8384 12.8715 16.7818 12.9611 16.5414 12.9611H13.7271C13.4537 12.9611 13.3311 13.1496 13.3311 13.3523V13.3712C13.3311 13.9227 12.9021 14.5167 12.2091 14.5167C11.5162 14.5167 11.0872 13.9227 11.0872 13.3712V13.3523C11.0872 13.1496 10.9646 12.9611 10.6912 12.9611H7.87687C7.63174 12.9611 7.5846 12.8574 7.73545 12.6594L9.33825 10.4249C9.55038 10.1468 9.88037 9.87333 10.2104 9.87333H10.8939V9.10022H10.2528C9.3901 9.10022 9.01297 9.45849 8.46614 10.2033L6.89634 12.32C6.67949 12.6169 6.62292 12.8526 6.62292 13.3288V16.0299C6.62292 17.0388 7.15562 17.5667 8.17386 17.5667Z" fill="#00FF62"/>
<g filter="url(#filter0_f_17_5302)">
<circle cx="12.0025" cy="23.1724" r="9.10345" fill="url(#paint0_linear_17_5302)"/>
</g>
</g>
<defs>
<filter id="filter0_f_17_5302" x="-2.35738" y="8.81254" width="28.7198" height="28.7198" filterUnits="userSpaceOnUse" color-interpolation-filters="sRGB">
<feFlood flood-opacity="0" result="BackgroundImageFix"/>
<feBlend mode="normal" in="SourceGraphic" in2="BackgroundImageFix" result="shape"/>
<feGaussianBlur stdDeviation="2.62822" result="effect1_foregroundBlur_17_5302"/>
</filter>
<linearGradient id="paint0_linear_17_5302" x1="12.0025" y1="14.069" x2="12.0025" y2="29.7931" gradientUnits="userSpaceOnUse">
<stop stop-color="#05431D" stop-opacity="0.3"/>
<stop offset="1" stop-color="#00CD4F"/>
</linearGradient>
</defs>
</svg>
