<svg width="18" height="14" viewBox="0 0 18 14" fill="none" xmlns="http://www.w3.org/2000/svg">
<path d="M8.55301 7.83761L9.07269 7.64989L11.4906 5.75501C11.6133 5.65528 11.6855 5.40303 11.6855 5.40303L11.0792 4.93371L10.6317 5.0921L9.62123 5.96621L9.17374 6.40033L9.23148 5.52622V0.539716L8.55301 0L7.88176 0.539716V5.52622L7.93229 6.40033L7.48479 5.96621L6.48152 5.0921L6.0268 4.93371L5.42773 5.40303L5.61539 5.75501L8.04055 7.64989L8.55301 7.83761ZM2.37463 13.622H14.7242L17.106 11.7095V8.348C17.106 7.75548 17.0122 7.46216 16.6802 7.09257L14.2839 4.45852L11.5412 3.08577H10.5668V4.04787H11.6133L12.9414 4.73425L15.3954 7.51496C15.6408 7.77895 15.5542 7.89041 15.1861 7.89041H10.8771L10.2708 8.37733V8.40079L8.55301 9.82635L6.83519 8.40079V8.37733L6.2289 7.89041H1.91992C1.54459 7.89041 1.47242 7.76135 1.70338 7.51496L4.15741 4.73425L5.49269 4.04787H6.53926V3.08577H5.55765L2.82213 4.45852L0.418628 7.09257C0.0866128 7.46216 0 7.75548 0 8.348V11.7095L2.37463 13.622Z" fill="white"/>
</svg>
