<svg width="16" height="16" viewBox="0 0 16 16" fill="none" xmlns="http://www.w3.org/2000/svg">
<path d="M12.2834 1.24333L11.1894 2.33733C10.1349 1.74356 8.93558 1.45596 7.72649 1.50692C6.51739 1.55787 5.34653 1.94535 4.34574 2.62574C3.34494 3.30612 2.55396 4.25238 2.06185 5.35798C1.56975 6.46357 1.39606 7.68459 1.56035 8.88356C1.72463 10.0825 2.22037 11.2118 2.99174 12.1443C3.76311 13.0768 4.77948 13.7754 5.9264 14.1615C7.07333 14.5476 8.30527 14.6058 9.4835 14.3296C10.6617 14.0535 11.7395 13.4539 12.5954 12.5983C12.7376 12.4658 12.9256 12.3937 13.1199 12.3972C13.3142 12.4006 13.4996 12.4793 13.637 12.6167C13.7744 12.7541 13.8531 12.9395 13.8566 13.1338C13.86 13.3281 13.7879 13.5162 13.6554 13.6583C12.5894 14.7238 11.2441 15.4664 9.77449 15.8007C8.30487 16.135 6.77071 16.0474 5.34873 15.5479C3.92675 15.0484 2.67478 14.1574 1.73705 12.9775C0.799318 11.7976 0.213963 10.3768 0.0484127 8.87874C-0.117138 7.3807 0.143851 5.86637 0.801315 4.51018C1.45878 3.15398 2.48597 2.01109 3.76458 1.21316C5.04318 0.415231 6.52118 -0.00528643 8.02833 5.01688e-05C9.53548 0.00538677 11.0105 0.43636 12.2834 1.24333ZM8.98739 4.53933L10.1504 3.37633C9.06358 2.873 7.83433 2.76807 6.67793 3.07991C5.52154 3.39175 4.51171 4.10048 3.8253 5.08198C3.1389 6.06348 2.81967 7.25518 2.92353 8.44837C3.02739 9.64156 3.54772 10.7602 4.39339 11.6083C5.3498 12.5646 6.6469 13.1018 7.99939 13.1018C9.35187 13.1018 10.649 12.5646 11.6054 11.6083C11.6791 11.5397 11.7382 11.4569 11.7792 11.3649C11.8202 11.2729 11.8422 11.1736 11.844 11.0728C11.8458 10.9721 11.8272 10.8721 11.7895 10.7787C11.7518 10.6853 11.6956 10.6005 11.6244 10.5293C11.5532 10.4581 11.4684 10.4019 11.375 10.3642C11.2816 10.3265 11.1816 10.308 11.0809 10.3097C10.9802 10.3115 10.8808 10.3336 10.7888 10.3745C10.6968 10.4155 10.614 10.4746 10.5454 10.5483C10.0967 10.9966 9.53751 11.3184 8.92447 11.4811C8.31143 11.6438 7.66628 11.6416 7.05434 11.4749C6.4424 11.3081 5.88538 10.9826 5.43968 10.5313C4.99397 10.08 4.6754 9.51904 4.51622 8.90508C4.35703 8.29111 4.36288 7.64599 4.53317 7.03502C4.70345 6.42404 5.03214 5.8689 5.48595 5.42579C5.93976 4.98268 6.50259 4.66733 7.11745 4.51166C7.73232 4.35599 8.3774 4.36554 8.98739 4.53933ZM13.7794 2.22233C13.9198 2.36295 13.9987 2.55358 13.9987 2.75233C13.9987 2.95108 13.9198 3.1417 13.7794 3.28233L9.44939 7.61333C9.48205 7.73799 9.49872 7.86766 9.49939 8.00233C9.49911 8.31572 9.40068 8.62115 9.21793 8.87574C9.03517 9.13033 8.77726 9.32128 8.48042 9.42178C8.18358 9.52229 7.86272 9.52729 7.56289 9.43609C7.26306 9.34489 6.99932 9.16208 6.80871 8.91331C6.61811 8.66454 6.5102 8.36233 6.50016 8.04909C6.49011 7.73586 6.57843 7.42735 6.7527 7.16688C6.92697 6.90641 7.17845 6.70707 7.47182 6.59685C7.76519 6.48662 8.08572 6.47105 8.38839 6.55233L12.7184 2.22233C12.788 2.15263 12.8707 2.09734 12.9618 2.05962C13.0528 2.0219 13.1504 2.00249 13.2489 2.00249C13.3474 2.00249 13.445 2.0219 13.536 2.05962C13.627 2.09734 13.7097 2.15263 13.7794 2.22233ZM15.2494 11.2523C15.2494 11.4512 15.1704 11.642 15.0297 11.7827C14.8891 11.9233 14.6983 12.0023 14.4994 12.0023C14.3005 12.0023 14.1097 11.9233 13.9691 11.7827C13.8284 11.642 13.7494 11.4512 13.7494 11.2523C13.7494 11.0534 13.8284 10.8626 13.9691 10.722C14.1097 10.5813 14.3005 10.5023 14.4994 10.5023C14.6983 10.5023 14.8891 10.5813 15.0297 10.722C15.1704 10.8626 15.2494 11.0534 15.2494 11.2523ZM14.4994 5.50233C14.6983 5.50233 14.8891 5.42331 15.0297 5.28266C15.1704 5.142 15.2494 4.95124 15.2494 4.75233C15.2494 4.55341 15.1704 4.36265 15.0297 4.222C14.8891 4.08134 14.6983 4.00233 14.4994 4.00233C14.3005 4.00233 14.1097 4.08134 13.9691 4.222C13.8284 4.36265 13.7494 4.55341 13.7494 4.75233C13.7494 4.95124 13.8284 5.142 13.9691 5.28266C14.1097 5.42331 14.3005 5.50233 14.4994 5.50233ZM15.9994 9.25233C15.9994 9.45124 15.9204 9.642 15.7797 9.78266C15.6391 9.92331 15.4483 10.0023 15.2494 10.0023C15.0505 10.0023 14.8597 9.92331 14.7191 9.78266C14.5784 9.642 14.4994 9.45124 14.4994 9.25233C14.4994 9.05341 14.5784 8.86265 14.7191 8.722C14.8597 8.58134 15.0505 8.50233 15.2494 8.50233C15.4483 8.50233 15.6391 8.58134 15.7797 8.722C15.9204 8.86265 15.9994 9.05341 15.9994 9.25233ZM15.2494 7.50233C15.4483 7.50233 15.6391 7.42331 15.7797 7.28266C15.9204 7.142 15.9994 6.95124 15.9994 6.75233C15.9994 6.55341 15.9204 6.36265 15.7797 6.222C15.6391 6.08134 15.4483 6.00233 15.2494 6.00233C15.0505 6.00233 14.8597 6.08134 14.7191 6.222C14.5784 6.36265 14.4994 6.55341 14.4994 6.75233C14.4994 6.95124 14.5784 7.142 14.7191 7.28266C14.8597 7.42331 15.0505 7.50233 15.2494 7.50233ZM12.9994 9.25233C12.9994 9.45124 12.9204 9.642 12.7797 9.78266C12.6391 9.92331 12.4483 10.0023 12.2494 10.0023C12.0505 10.0023 11.8597 9.92331 11.7191 9.78266C11.5784 9.642 11.4994 9.45124 11.4994 9.25233C11.4994 9.05341 11.5784 8.86265 11.7191 8.722C11.8597 8.58134 12.0505 8.50233 12.2494 8.50233C12.4483 8.50233 12.6391 8.58134 12.7797 8.722C12.9204 8.86265 12.9994 9.05341 12.9994 9.25233ZM12.2494 7.50233C12.4483 7.50233 12.6391 7.42331 12.7797 7.28266C12.9204 7.142 12.9994 6.95124 12.9994 6.75233C12.9994 6.55341 12.9204 6.36265 12.7797 6.222C12.6391 6.08134 12.4483 6.00233 12.2494 6.00233C12.0505 6.00233 11.8597 6.08134 11.7191 6.222C11.5784 6.36265 11.4994 6.55341 11.4994 6.75233C11.4994 6.95124 11.5784 7.142 11.7191 7.28266C11.8597 7.42331 12.0505 7.50233 12.2494 7.50233Z" fill="#2BFF75"/>
</svg>
