<svg width="69" height="68" viewBox="0 0 69 68" fill="none" xmlns="http://www.w3.org/2000/svg">
<path d="M0 45.7403L4.73635 42.9979L26.1746 60.4477L47.2929 40.46L51.3521 42.9979L26.1746 67.1783L0 45.7403Z" fill="#20E765"/>
<path d="M68.0537 21.4379L63.3174 24.1802L41.8791 6.73044L20.4963 26.1377L16.7016 24.1802L41.8791 -0.000175476L68.0537 21.4379Z" fill="#20E765"/>
<path d="M21.4378 -2.37538e-07L24.1801 4.60865L6.73039 26.1746L26.8721 47.5751L24.1801 51.3521L-0.000226211 26.1746L21.4378 -2.37538e-07Z" fill="#20E765"/>
<path d="M46.6165 67.1787L43.8742 62.4424L61.324 41.0041L40.6338 20.563L43.8742 15.8266L68.0546 41.0041L46.6165 67.1787Z" fill="#20E765"/>
</svg>
