<svg width="100" height="28" viewBox="0 0 100 28" fill="none" xmlns="http://www.w3.org/2000/svg">
<path d="M0 8.52174L12.4978 28H94.9834L99.9825 19.4783L86.2349 0H6.24891L0 8.52174Z" fill="#04B548"/>
<path d="M33.2219 16.8362L35.6819 8.88016H38.3219L40.7819 16.8362L40.5659 17.1602H39.1259L38.6219 15.4802H35.3819L34.8779 17.1602H33.4379L33.2219 16.8362ZM35.8499 13.9202H38.1539L37.0979 10.4402H36.9059L35.8499 13.9202ZM41.766 15.2162V12.7682C41.766 11.4722 42.414 10.8242 43.71 10.8242H45.942L46.662 11.3642V12.2642H43.806C43.55 12.2642 43.422 12.3922 43.422 12.6482V15.3362C43.422 15.5922 43.55 15.7202 43.806 15.7202H46.662V16.6202L45.942 17.1602H43.71C42.414 17.1602 41.766 16.5122 41.766 15.2162ZM48.025 15.2162V8.88016H49.681V10.8242H51.745V12.2642H49.681V15.3362C49.681 15.5922 49.809 15.7202 50.065 15.7202H51.865V16.6202L51.145 17.1602H49.969C48.673 17.1602 48.025 16.5122 48.025 15.2162ZM53.1229 9.78016V8.16016H54.8509V9.78016H53.1229ZM53.1589 17.1602V10.8242H54.8149V17.1602H53.1589ZM55.8976 11.0762L56.0656 10.8242H57.4936L58.9576 15.7202H59.0776L60.5416 10.8242H61.9696L62.1376 11.0762L60.2296 17.1602H57.8056L55.8976 11.0762ZM63.1176 15.2162V12.7682C63.1176 11.4722 63.7656 10.8242 65.0616 10.8242H66.6216C67.9176 10.8242 68.5656 11.4722 68.5656 12.7682V14.6042H64.7736V15.3362C64.7736 15.5922 64.9016 15.7202 65.1576 15.7202H68.3256V16.6202L67.6056 17.1602H65.0616C63.7656 17.1602 63.1176 16.5122 63.1176 15.2162ZM64.7736 13.3322H66.9096V12.6482C66.9096 12.3922 66.7816 12.2642 66.5256 12.2642H65.1576C64.9016 12.2642 64.7736 12.3922 64.7736 12.6482V13.3322Z" fill="white"/>
</svg>
