<svg width="100" height="28" viewBox="0 0 100 28" fill="none" xmlns="http://www.w3.org/2000/svg">
<path d="M0 8.52174L12.4978 28H94.9834L99.9825 19.4783L86.2349 0H6.24891L0 8.52174Z" fill="#045F27"/>
<path d="M32.216 17.676L34.676 9.72H37.316L39.776 17.676L39.56 18H38.12L37.616 16.32H34.376L33.872 18H32.432L32.216 17.676ZM34.844 14.76H37.148L36.092 11.28H35.9L34.844 14.76ZM40.7602 16.056V13.608C40.7602 12.312 41.4082 11.664 42.7042 11.664H44.9362L45.6562 12.204V13.104H42.8002C42.5442 13.104 42.4162 13.232 42.4162 13.488V16.176C42.4162 16.432 42.5442 16.56 42.8002 16.56H45.6562V17.46L44.9362 18H42.7042C41.4082 18 40.7602 17.352 40.7602 16.056ZM47.0191 16.056V9.72H48.6751V11.664H50.7391V13.104H48.6751V16.176C48.6751 16.432 48.8031 16.56 49.0591 16.56H50.8591V17.46L50.1391 18H48.9631C47.6671 18 47.0191 17.352 47.0191 16.056ZM52.1171 10.62V9H53.8451V10.62H52.1171ZM52.1531 18V11.664H53.8091V18H52.1531ZM54.8918 11.916L55.0598 11.664H56.4878L57.9518 16.56H58.0718L59.5358 11.664H60.9638L61.1318 11.916L59.2238 18H56.7998L54.8918 11.916ZM62.1118 16.056V13.608C62.1118 12.312 62.7598 11.664 64.0558 11.664H65.6158C66.9118 11.664 67.5598 12.312 67.5598 13.608V15.444H63.7678V16.176C63.7678 16.432 63.8958 16.56 64.1518 16.56H67.3198V17.46L66.5998 18H64.0558C62.7598 18 62.1118 17.352 62.1118 16.056ZM63.7678 14.172H65.9038V13.488C65.9038 13.232 65.7758 13.104 65.5198 13.104H64.1518C63.8958 13.104 63.7678 13.232 63.7678 13.488V14.172Z" fill="white"/>
</svg>
