<svg width="107" height="28" viewBox="0 0 107 28" fill="none" xmlns="http://www.w3.org/2000/svg">
<path d="M92.2959 0L106.044 19.4785L101.044 28H8.74805L13.7471 19.4785L0 0H92.2959Z" fill="#045F27"/>
<path d="M33.984 18V9.72H37.128C39.384 9.72 40.512 10.848 40.512 13.104V14.616C40.512 16.872 39.384 18 37.128 18H33.984ZM35.712 16.44H37.224C38.264 16.44 38.784 15.92 38.784 14.88V12.84C38.784 11.8 38.264 11.28 37.224 11.28H35.712V16.44ZM42.0297 16.056V13.608C42.0297 12.312 42.6777 11.664 43.9737 11.664H45.5337C46.8297 11.664 47.4777 12.312 47.4777 13.608V15.444H43.6857V16.176C43.6857 16.432 43.8137 16.56 44.0697 16.56H47.2377V17.46L46.5177 18H43.9737C42.6777 18 42.0297 17.352 42.0297 16.056ZM43.6857 14.172H45.8217V13.488C45.8217 13.232 45.6937 13.104 45.4377 13.104H44.0697C43.8137 13.104 43.6857 13.232 43.6857 13.488V14.172ZM50.7181 18C49.4221 18 48.7741 17.364 48.7741 16.092C48.7741 14.82 49.4221 14.184 50.7181 14.184H52.3741V13.488C52.3741 13.232 52.2461 13.104 51.9901 13.104H49.4461V12.204L50.1661 11.664H52.0861C53.3821 11.664 54.0301 12.312 54.0301 13.608V18H50.7181ZM50.4301 16.176C50.4301 16.432 50.5581 16.56 50.8141 16.56H52.3741V15.456H50.8141C50.5581 15.456 50.4301 15.584 50.4301 15.84V16.176ZM55.6118 16.056V13.608C55.6118 12.312 56.2598 11.664 57.5558 11.664H59.7878L60.5078 12.204V13.104H57.6518C57.3958 13.104 57.2678 13.232 57.2678 13.488V16.176C57.2678 16.432 57.3958 16.56 57.6518 16.56H60.5078V17.46L59.7878 18H57.5558C56.2598 18 55.6118 17.352 55.6118 16.056ZM61.8707 16.056V9.72H63.5267V11.664H65.5907V13.104H63.5267V16.176C63.5267 16.432 63.6547 16.56 63.9107 16.56H65.7107V17.46L64.9907 18H63.8147C62.5187 18 61.8707 17.352 61.8707 16.056ZM66.9686 10.62V9H68.6966V10.62H66.9686ZM67.0046 18V11.664H68.6606V18H67.0046ZM69.7433 11.916L69.9113 11.664H71.3393L72.8033 16.56H72.9233L74.3873 11.664H75.8153L75.9833 11.916L74.0753 18H71.6513L69.7433 11.916ZM76.9633 16.056V13.608C76.9633 12.312 77.6113 11.664 78.9073 11.664H80.4673C81.7633 11.664 82.4113 12.312 82.4113 13.608V15.444H78.6193V16.176C78.6193 16.432 78.7473 16.56 79.0033 16.56H82.1713V17.46L81.4513 18H78.9073C77.6113 18 76.9633 17.352 76.9633 16.056ZM78.6193 14.172H80.7553V13.488C80.7553 13.232 80.6273 13.104 80.3713 13.104H79.0033C78.7473 13.104 78.6193 13.232 78.6193 13.488V14.172Z" fill="white"/>
</svg>
